<mxfile host="Electron" modified="2024-06-27T13:38:30.563Z" agent="Mozilla/5.0 (Windows NT 10.0; Win64; x64) AppleWebKit/537.36 (KHTML, like Gecko) draw.io/24.6.1 Chrome/124.0.6367.207 Electron/30.0.6 Safari/537.36" etag="D86ICjnv6ZLKTTR5GzdO" version="24.6.1" type="device">
  <diagram name="‫עמוד-1‬" id="ZSeQGmp5gzqDkqrKJlP_">
    <mxGraphModel dx="918" dy="584" grid="1" gridSize="10" guides="1" tooltips="1" connect="1" arrows="1" fold="1" page="1" pageScale="1" pageWidth="827" pageHeight="1169" math="0" shadow="0">
      <root>
        <mxCell id="0" />
        <mxCell id="1" parent="0" />
        <mxCell id="0ppOQOqkunt7Ey7HTgBh-1" value="&lt;b&gt;&lt;font style=&quot;font-size: 13px;&quot;&gt;HR Manger&lt;/font&gt;&lt;/b&gt;" style="shape=umlActor;verticalLabelPosition=bottom;verticalAlign=top;html=1;outlineConnect=0;fillColor=#dae8fc;strokeColor=#6c8ebf;strokeWidth=3;" parent="1" vertex="1">
          <mxGeometry x="20" y="250" width="60" height="90" as="geometry" />
        </mxCell>
        <mxCell id="0ppOQOqkunt7Ey7HTgBh-7" value="&lt;b&gt;&lt;font style=&quot;font-size: 13px;&quot;&gt;Worker&lt;/font&gt;&lt;/b&gt;" style="shape=umlActor;verticalLabelPosition=bottom;verticalAlign=top;html=1;outlineConnect=0;strokeWidth=3;fillColor=#dae8fc;strokeColor=#6c8ebf;" parent="1" vertex="1">
          <mxGeometry x="750" y="250" width="60" height="90" as="geometry" />
        </mxCell>
        <mxCell id="0ppOQOqkunt7Ey7HTgBh-8" value="" style="endArrow=classic;html=1;rounded=0;entryX=0.061;entryY=0.731;entryDx=0;entryDy=0;entryPerimeter=0;fontSize=13;fontStyle=1" parent="1" edge="1" target="0ppOQOqkunt7Ey7HTgBh-9">
          <mxGeometry width="50" height="50" relative="1" as="geometry">
            <mxPoint x="80" y="240" as="sourcePoint" />
            <mxPoint x="200" y="120" as="targetPoint" />
          </mxGeometry>
        </mxCell>
        <mxCell id="0ppOQOqkunt7Ey7HTgBh-9" value="הכנסת עובד חדש" style="ellipse;whiteSpace=wrap;html=1;fontSize=13;fontStyle=1" parent="1" vertex="1">
          <mxGeometry x="200" y="70" width="120" height="60" as="geometry" />
        </mxCell>
        <mxCell id="0ppOQOqkunt7Ey7HTgBh-10" value="&lt;span style=&quot;font-size: 13px;&quot;&gt;&lt;font style=&quot;font-size: 13px;&quot;&gt;עדכון פרטי עובד&lt;/font&gt;&lt;/span&gt;" style="ellipse;whiteSpace=wrap;html=1;fontSize=13;fontStyle=1" parent="1" vertex="1">
          <mxGeometry x="200" y="210" width="120" height="60" as="geometry" />
        </mxCell>
        <mxCell id="0ppOQOqkunt7Ey7HTgBh-11" value="" style="endArrow=classic;html=1;rounded=0;entryX=-0.027;entryY=0.649;entryDx=0;entryDy=0;entryPerimeter=0;fontSize=13;fontStyle=1" parent="1" target="0ppOQOqkunt7Ey7HTgBh-10" edge="1">
          <mxGeometry width="50" height="50" relative="1" as="geometry">
            <mxPoint x="90" y="280" as="sourcePoint" />
            <mxPoint x="200" y="170" as="targetPoint" />
          </mxGeometry>
        </mxCell>
        <mxCell id="0ppOQOqkunt7Ey7HTgBh-12" value="הגשת אילוצי זמינות למשמרת&amp;nbsp;" style="ellipse;whiteSpace=wrap;html=1;fontSize=13;fontStyle=1" parent="1" vertex="1">
          <mxGeometry x="420" y="460" width="120" height="60" as="geometry" />
        </mxCell>
        <mxCell id="0ppOQOqkunt7Ey7HTgBh-13" value="" style="endArrow=classic;html=1;rounded=0;entryX=0;entryY=0.333;entryDx=0;entryDy=0;entryPerimeter=0;fontSize=13;fontStyle=1" parent="1" source="0ppOQOqkunt7Ey7HTgBh-15" target="0ppOQOqkunt7Ey7HTgBh-12" edge="1">
          <mxGeometry width="50" height="50" relative="1" as="geometry">
            <mxPoint x="90" y="340" as="sourcePoint" />
            <mxPoint x="190" y="350" as="targetPoint" />
            <Array as="points">
              <mxPoint x="280" y="480" />
            </Array>
          </mxGeometry>
        </mxCell>
        <mxCell id="0ppOQOqkunt7Ey7HTgBh-14" value="" style="endArrow=classic;html=1;rounded=0;" parent="1" edge="1">
          <mxGeometry width="50" height="50" relative="1" as="geometry">
            <mxPoint x="70" y="370" as="sourcePoint" />
            <mxPoint x="160" y="470" as="targetPoint" />
          </mxGeometry>
        </mxCell>
        <mxCell id="0ppOQOqkunt7Ey7HTgBh-15" value="שיבוץ עובדים למשמרות" style="ellipse;whiteSpace=wrap;html=1;fontSize=13;fontStyle=1" parent="1" vertex="1">
          <mxGeometry x="160" y="450" width="120" height="60" as="geometry" />
        </mxCell>
        <mxCell id="0ppOQOqkunt7Ey7HTgBh-16" value="" style="endArrow=classic;html=1;rounded=0;entryX=0.034;entryY=0.654;entryDx=0;entryDy=0;entryPerimeter=0;fontSize=13;fontStyle=1" parent="1" target="0ppOQOqkunt7Ey7HTgBh-17" edge="1">
          <mxGeometry width="50" height="50" relative="1" as="geometry">
            <mxPoint x="310" y="220" as="sourcePoint" />
            <mxPoint x="420" y="160" as="targetPoint" />
          </mxGeometry>
        </mxCell>
        <mxCell id="0ppOQOqkunt7Ey7HTgBh-17" value="עדכון שכר שעתי&amp;nbsp;" style="ellipse;whiteSpace=wrap;html=1;fontSize=13;fontStyle=1" parent="1" vertex="1">
          <mxGeometry x="390" y="70" width="120" height="60" as="geometry" />
        </mxCell>
        <mxCell id="0ppOQOqkunt7Ey7HTgBh-18" value="&lt;span style=&quot;font-size: 13px;&quot;&gt;&lt;font style=&quot;font-size: 13px;&quot;&gt;עדכון מספר חשבון בנק&amp;nbsp;&lt;/font&gt;&lt;/span&gt;" style="ellipse;whiteSpace=wrap;html=1;fontSize=13;fontStyle=1" parent="1" vertex="1">
          <mxGeometry x="400" y="140" width="120" height="60" as="geometry" />
        </mxCell>
        <mxCell id="0ppOQOqkunt7Ey7HTgBh-19" value="" style="endArrow=classic;html=1;rounded=0;entryX=0;entryY=0.5;entryDx=0;entryDy=0;fontSize=13;fontStyle=1" parent="1" target="0ppOQOqkunt7Ey7HTgBh-18" edge="1">
          <mxGeometry width="50" height="50" relative="1" as="geometry">
            <mxPoint x="320" y="230" as="sourcePoint" />
            <mxPoint x="409" y="164" as="targetPoint" />
          </mxGeometry>
        </mxCell>
        <mxCell id="0ppOQOqkunt7Ey7HTgBh-20" value="עדכון סוג משרה" style="ellipse;whiteSpace=wrap;html=1;fontSize=13;fontStyle=1" parent="1" vertex="1">
          <mxGeometry x="400" y="210" width="120" height="60" as="geometry" />
        </mxCell>
        <mxCell id="0ppOQOqkunt7Ey7HTgBh-21" value="עדכון סניף" style="ellipse;whiteSpace=wrap;html=1;fontSize=13;fontStyle=1" parent="1" vertex="1">
          <mxGeometry x="400" y="280" width="120" height="60" as="geometry" />
        </mxCell>
        <mxCell id="0ppOQOqkunt7Ey7HTgBh-22" value="" style="endArrow=classic;html=1;rounded=0;entryX=0.049;entryY=0.285;entryDx=0;entryDy=0;entryPerimeter=0;fontSize=13;fontStyle=1" parent="1" target="0ppOQOqkunt7Ey7HTgBh-21" edge="1">
          <mxGeometry width="50" height="50" relative="1" as="geometry">
            <mxPoint x="310" y="260" as="sourcePoint" />
            <mxPoint x="410" y="300" as="targetPoint" />
          </mxGeometry>
        </mxCell>
        <mxCell id="0ppOQOqkunt7Ey7HTgBh-23" value="" style="endArrow=classic;html=1;rounded=0;entryX=0;entryY=0.5;entryDx=0;entryDy=0;exitX=1;exitY=0.5;exitDx=0;exitDy=0;fontSize=13;fontStyle=1" parent="1" source="0ppOQOqkunt7Ey7HTgBh-10" target="0ppOQOqkunt7Ey7HTgBh-20" edge="1">
          <mxGeometry width="50" height="50" relative="1" as="geometry">
            <mxPoint x="320" y="250" as="sourcePoint" />
            <mxPoint x="420" y="290" as="targetPoint" />
          </mxGeometry>
        </mxCell>
        <mxCell id="0ppOQOqkunt7Ey7HTgBh-24" value="הרחבת תפקיד עובד למנהל משמרת" style="ellipse;whiteSpace=wrap;html=1;fontSize=13;fontStyle=1" parent="1" vertex="1">
          <mxGeometry x="400" y="350" width="120" height="60" as="geometry" />
        </mxCell>
        <mxCell id="0ppOQOqkunt7Ey7HTgBh-25" value="" style="endArrow=classic;html=1;rounded=0;entryX=0.059;entryY=0.321;entryDx=0;entryDy=0;entryPerimeter=0;fontSize=13;fontStyle=1" parent="1" target="0ppOQOqkunt7Ey7HTgBh-24" edge="1">
          <mxGeometry width="50" height="50" relative="1" as="geometry">
            <mxPoint x="294" y="270" as="sourcePoint" />
            <mxPoint x="390" y="307" as="targetPoint" />
          </mxGeometry>
        </mxCell>
        <mxCell id="0ppOQOqkunt7Ey7HTgBh-26" value="" style="endArrow=classic;html=1;rounded=0;exitX=0;exitY=0.3333333333333333;exitDx=0;exitDy=0;exitPerimeter=0;" parent="1" source="0ppOQOqkunt7Ey7HTgBh-7" target="0ppOQOqkunt7Ey7HTgBh-12" edge="1">
          <mxGeometry width="50" height="50" relative="1" as="geometry">
            <mxPoint x="660" y="380" as="sourcePoint" />
            <mxPoint x="773" y="479" as="targetPoint" />
          </mxGeometry>
        </mxCell>
        <mxCell id="0ppOQOqkunt7Ey7HTgBh-27" value="Include" style="text;html=1;align=center;verticalAlign=middle;resizable=0;points=[];autosize=1;strokeColor=none;fillColor=none;fontSize=13;fontStyle=1" parent="1" vertex="1">
          <mxGeometry x="315" y="458" width="70" height="30" as="geometry" />
        </mxCell>
        <mxCell id="0ppOQOqkunt7Ey7HTgBh-28" value="Extend&amp;nbsp;" style="text;html=1;align=center;verticalAlign=middle;resizable=0;points=[];autosize=1;strokeColor=none;fillColor=none;rotation=40;fontSize=13;fontStyle=1" parent="1" vertex="1">
          <mxGeometry x="325" y="298" width="70" height="30" as="geometry" />
        </mxCell>
        <mxCell id="0ppOQOqkunt7Ey7HTgBh-29" value="Extend&amp;nbsp;" style="text;html=1;align=center;verticalAlign=middle;resizable=0;points=[];autosize=1;strokeColor=none;fillColor=none;rotation=20;fontSize=13;fontStyle=1" parent="1" vertex="1">
          <mxGeometry x="335" y="260" width="70" height="30" as="geometry" />
        </mxCell>
        <mxCell id="0ppOQOqkunt7Ey7HTgBh-30" value="Extend&amp;nbsp;" style="text;html=1;align=center;verticalAlign=middle;resizable=0;points=[];autosize=1;strokeColor=none;fillColor=none;rotation=-1;fontSize=13;fontStyle=1" parent="1" vertex="1">
          <mxGeometry x="335" y="210" width="70" height="30" as="geometry" />
        </mxCell>
        <mxCell id="0ppOQOqkunt7Ey7HTgBh-31" value="Extend&amp;nbsp;" style="text;html=1;align=center;verticalAlign=middle;resizable=0;points=[];autosize=1;strokeColor=none;fillColor=none;rotation=-50;fontSize=13;fontStyle=1" parent="1" vertex="1">
          <mxGeometry x="305" y="150" width="70" height="30" as="geometry" />
        </mxCell>
        <mxCell id="0ppOQOqkunt7Ey7HTgBh-33" value="Extend&amp;nbsp;" style="text;html=1;align=center;verticalAlign=middle;resizable=0;points=[];autosize=1;strokeColor=none;fillColor=none;rotation=-40;fontSize=13;fontStyle=1" parent="1" vertex="1">
          <mxGeometry x="325" y="170" width="70" height="30" as="geometry" />
        </mxCell>
      </root>
    </mxGraphModel>
  </diagram>
</mxfile>
